<?xml version="1.0" encoding="iso-8859-1"?>
<!-- Generator: Adobe Illustrator 19.0.0, SVG Export Plug-In . SVG Version: 6.00 Build 0)  -->
<svg version="1.1" id="Capa_1" xmlns="http://www.w3.org/2000/svg" xmlns:xlink="http://www.w3.org/1999/xlink" x="0px" y="0px"
	 viewBox="0 0 512 512" style="enable-background:new 0 0 512 512;" xml:space="preserve">
<g>
	<g>
		<circle cx="328.842" cy="59.596" r="7.515"/>
	</g>
</g>
<g>
	<g>
		<path d="M504.485,212.385h-54.439c-4.151,0-7.515,3.364-7.515,7.515s3.364,7.515,7.515,7.515h46.807
			c-2.609,83.095-48.326,159.68-120.681,201.393H135.591c-0.313-0.26-0.643-0.502-1.006-0.714
			C63.01,386.259,17.749,309.877,15.148,227.414h397.491c4.151,0,7.515-3.364,7.515-7.515s-3.364-7.515-7.515-7.515H308.68
			l56.263-136.594c7.259-16.163,2.627-35.776-11.144-46.938c-3.415-2.767-7.293-4.946-11.422-6.45
			c-16.471-5.993-35.516-0.151-45.714,14.119c-2.655,3.715-4.642,7.881-5.889,12.272l-51.94,163.591H7.515
			c-4.151,0-7.515,3.364-7.515,7.515c0,45.537,12.11,90.255,35.019,129.321c20.897,35.634,50.256,65.831,85.215,87.745v47.451
			c0,4.151,3.364,7.515,7.515,7.515H384.25c4.151,0,7.515-3.364,7.515-7.515v-47.455c34.618-21.699,63.738-51.5,84.608-86.711
			C499.681,310.928,512,265.854,512,219.899C512,215.748,508.636,212.385,504.485,212.385z M305.136,53.226
			c1.946-6.137,5.463-11.331,11.075-14.684c6.321-3.776,14.104-4.534,21.025-2.015c10.053,3.658,16.714,13.776,16.114,24.457
			c-0.177,3.168-1.057,6.058-2.258,8.969l-58.667,142.431h-37.823L305.136,53.226z M376.736,476.901H135.264v-33.065h241.472
			V476.901z"/>
	</g>
</g>
<g>
	<g>
		<path d="M256,77.121c-51.885,0-100.74,4.225-137.563,11.896c-41.94,8.737-62.328,20.414-62.328,35.697
			c0,13.419,15.72,24.012,48.058,32.384c23.722,6.14,55.579,10.731,91.002,13.176l-15.742,11.493c-3.01,2.199-3.95,6.407-2.16,9.677
			c2.146,3.922,7.408,5.1,11.024,2.462l31.562-23.045c3.592-2.624,4.094-7.972,1.044-11.216l-23.546-25.049
			c-2.845-3.025-7.598-3.172-10.623-0.329c-3.025,2.843-3.171,7.599-0.329,10.623l9.765,10.389
			c-34.489-2.38-65.374-6.814-88.23-12.731c-30.035-7.775-36.795-15.68-36.795-17.835c0-2.721,9.252-12.419,50.363-20.983
			C157.348,96.262,205.114,92.15,256,92.15c4.151,0,7.515-3.364,7.515-7.515S260.151,77.121,256,77.121z"/>
	</g>
</g>
<g>
	<g>
		<path d="M415.933,94.577l14.273-3.664c4.02-1.032,6.443-5.128,5.41-9.148s-5.131-6.442-9.148-5.41l-37.072,9.519
			c-4.345,1.117-6.79,5.967-5.084,10.128l12.524,30.559c1.635,3.99,6.451,5.798,10.313,3.872c3.474-1.732,5.064-5.982,3.593-9.571
			l-5.616-13.704c28.964,7.642,35.735,15.328,35.735,17.556c0,3.241-13.949,17.208-82.193,26.32
			c-4.114,0.549-7.004,4.328-6.454,8.442c0.504,3.777,3.731,6.522,7.439,6.522c0.332,0,0.667-0.022,1.004-0.067
			c27.214-3.633,50.036-8.698,65.994-14.644c19.674-7.332,29.239-16.025,29.239-26.574
			C455.89,112.47,442.778,102.561,415.933,94.577z"/>
	</g>
</g>
<g>
</g>
<g>
</g>
<g>
</g>
<g>
</g>
<g>
</g>
<g>
</g>
<g>
</g>
<g>
</g>
<g>
</g>
<g>
</g>
<g>
</g>
<g>
</g>
<g>
</g>
<g>
</g>
<g>
</g>
</svg>
