<svg height="512" viewBox="0 0 512 512" width="512" xmlns="http://www.w3.org/2000/svg" xmlns:xlink="http://www.w3.org/1999/xlink"><linearGradient id="New_Gradient_Swatch_16" gradientTransform="matrix(-1 0 0 1 272 0)" gradientUnits="userSpaceOnUse" x1="270" x2="-46" y1="450" y2="134"><stop offset=".015" stop-color="#fdeebe"/><stop offset="1" stop-color="#fef7de"/></linearGradient><linearGradient id="New_Gradient_Swatch_1" gradientUnits="userSpaceOnUse" x1="104" x2="216" y1="96" y2="-16"><stop offset=".015" stop-color="#8ae4c8"/><stop offset="1" stop-color="#e2f8f1"/></linearGradient><linearGradient id="New_Gradient_Swatch_15" gradientUnits="userSpaceOnUse" x1="142" x2="234" y1="142" y2="50"><stop offset=".015" stop-color="#ebe6f4"/><stop offset="1" stop-color="#f5f3fa"/></linearGradient><linearGradient id="New_Gradient_Swatch_12" gradientUnits="userSpaceOnUse" x1="88" x2="344" y1="424" y2="168"><stop offset=".015" stop-color="#d7cdea"/><stop offset="1" stop-color="#ebe6f4"/></linearGradient><linearGradient id="New_Gradient_Swatch_1-2" x1="148" x2="284" xlink:href="#New_Gradient_Swatch_1" y1="364" y2="228"/><linearGradient id="New_Gradient_Swatch_5" gradientUnits="userSpaceOnUse" x1="248.209" x2="455.791" y1="464.521" y2="256.939"><stop offset=".015" stop-color="#fb9d8d"/><stop offset="1" stop-color="#fdcec6"/></linearGradient><linearGradient id="New_Gradient_Swatch_13" gradientUnits="userSpaceOnUse" x1="376" x2="456" y1="160" y2="160"><stop offset=".015" stop-color="#8ae4c8"/><stop offset="1" stop-color="#a7ebd6"/></linearGradient><g id="_07-nutrition" data-name="07-nutrition"><g id="linear_color" data-name="linear color"><path d="m16 464v-336l56-64h176l56 64v336z" fill="url(#New_Gradient_Swatch_16)"/><path d="m72 16h176v48h-176z" fill="url(#New_Gradient_Swatch_1)"/><path d="m304 128h-176l-56-64h176z" fill="url(#New_Gradient_Swatch_15)"/><path d="m128 128h176v336h-176z" fill="url(#New_Gradient_Swatch_12)"/><path d="m128 248h176v96h-176z" fill="url(#New_Gradient_Swatch_1-2)"/><path d="m352 480c80 32 144-32.471 144-112 0-47.967-17.461-99.188-52.384-120-22.979-13.694-53.516-14.224-91.616 8-36.134-21.078-65.467-21.689-88-10.013-37.333 19.346-56 72.413-56 122.013 0 79.529 64 144 144 112z" fill="url(#New_Gradient_Swatch_5)"/><path d="m376 160s17.909-24 40-24 40 24 40 24-17.909 24-40 24-40-24-40-24z" fill="url(#New_Gradient_Swatch_13)"/><path d="m448.615 237.022c-17.587-10.1-45.788-17.408-84.615-.575v-116.447a12 12 0 0 0 -24 0v116.447a126.623 126.623 0 0 0 -24-7.807v-100.64a12.115 12.115 0 0 0 -2.969-7.9l-53.031-60.608v-43.492a12 12 0 0 0 -12-12h-176a12 12 0 0 0 -12 12v43.492l-53.031 60.608a12 12 0 0 0 -2.969 7.9v336a12 12 0 0 0 12 12h227.49c2.707 2.233 5.5 4.34 8.373 6.288 29.137 19.726 64.537 23.412 100.137 10.55a121.417 121.417 0 0 0 41.3 7.528 103.8 103.8 0 0 0 58.833-18.078c17.041-11.537 31.213-28.216 40.985-48.233a151.31 151.31 0 0 0 14.882-66.055c0-44.686-15.553-105.8-59.385-130.978zm-249.459 94.978h-59.156v-72h89.073c-16.073 20.125-25.482 46.484-29.917 72zm78.4-216h-144.111l-35-40h144.11zm-20.335 120h-117.221v-96h152v86.513a79.854 79.854 0 0 0 -34.779 9.487zm-173.221-208h152v24h-152zm-56 104.509 44-50.286 44 50.285v319.492h-88zm112 223.491h56.369c-.243 4.1-.369 8.115-.369 12a151.31 151.31 0 0 0 14.878 66.055 133.128 133.128 0 0 0 10.557 17.945h-81.435zm298.682 106.415c-16.661 11.28-44.451 21.553-82.225 6.443a12.005 12.005 0 0 0 -8.914 0c-37.774 15.11-65.564 4.837-82.225-6.443-27.953-18.926-45.318-55.103-45.318-94.415 0-41.3 14.638-91.384 47.338-110.167 10.468-6.012 22.149-8.385 34.951-7.149q.516.073 1.045.1 19.615 2.185 42.62 15.579a12 12 0 0 0 12.092 0c30.771-17.949 57.222-20.819 78.616-8.532 32.7 18.785 47.338 68.869 47.338 110.169 0 39.312-17.365 75.489-45.318 94.415z"/><path d="m416 196c27.321 0 47.416-25.873 49.618-28.823a12 12 0 0 0 0-14.354c-2.202-2.95-22.297-28.823-49.618-28.823s-47.416 25.873-49.618 28.823a12 12 0 0 0 0 14.354c2.202 2.95 22.297 28.823 49.618 28.823zm0-48c8.766 0 17.669 6.273 23.781 12-6.087 5.685-15.029 12-23.781 12s-17.662-6.268-23.779-12c6.086-5.683 15.028-12 23.779-12z"/></g></g></svg>