<svg height="511pt" viewBox="0 -27 511.99697 511" width="511pt" xmlns="http://www.w3.org/2000/svg"><path d="m294.539062 320.003906c12.988282-30.800781 5.457032-66.429687-18.894531-89.335937-2.351562-2.214844-4.816406-4.242188-7.359375-6.121094-21.179687-3.234375-43.472656 2.027344-61.40625 16.070313l-16.15625 12.648437-16.15625-12.648437c-3.789062-2.96875-7.773437-5.535157-11.898437-7.722657l-7.28125 5.699219-16.160157-12.648438c-.617187-.484374-1.25-.941406-1.878906-1.402343-23.628906-3.597657-48.4375 3.433593-66.890625 20.792969-24.347656 22.90625-31.882812 58.539062-18.890625 89.339843l6.675782 15.820313c12.484374 29.605468 28.515624 57.621094 48.113281 83.082031 1.25 1.621094 2.507812 3.234375 3.78125 4.835937l5.691406 7.167969c.746094.941407 1.539063 1.835938 2.351563 2.710938 11.816406-.417969 23.050781-5.351563 31.339843-13.84375 3.214844-3.292969 8.511719-3.292969 11.726563 0 6.898437 7.066406 15.835937 11.667969 25.453125 13.257812 2.796875-1.578125 6.3125-1.378906 8.929687.585938 13.519532-.421875 26.203125-6.75 34.644532-17.378907l5.691406-7.167968c1.273437-1.605469 2.535156-3.214844 3.78125-4.839844 19.601562-25.457031 35.628906-53.472656 48.117187-83.074219zm0 0" fill="#a0e557"/><path d="m470.421875 54.734375c-19.644531-12.808594-42.957031-20.230469-67.960937-20.230469-32.484376 0-62.113282 12.523438-84.554688 33.117188-4.316406 3.964844-10.902344 3.964844-15.21875 0-22.445312-20.59375-52.074219-33.117188-84.558594-33.117188-70.070312 0-126.871094 58.261719-126.871094 130.132813 0 13.1875 3.757813 27.378906 10.292969 42.085937 14.539063 1.507813 28.789063 6.988282 41.011719 16.558594l16.15625 12.648438 16.15625-12.648438c31.105469-24.355469 75.332031-22.347656 104.105469 4.71875 24.347656 22.90625 31.882812 58.539062 18.890625 89.339844l-6.675782 15.824218c-7.726562 18.320313-16.8125 36.03125-27.261718 52.90625.398437.308594.800781.621094 1.1875.921876 10.5 8.144531 25.175781 8.144531 35.679687 0 52.234375-40.519532 201.199219-163.335938 201.199219-246.359376 0-32.921874-11.925781-62.980468-31.578125-85.898437zm0 0" fill="#ff5d5d"/><path d="m228.851562 311.132812h-13.398437c-33.175781 0-60.070313-26.894531-60.070313-60.070312v-13.398438h13.398438c33.175781 0 60.070312 26.894532 60.070312 60.070313zm0 0" fill="#d8fb93"/><path d="m375.125.5c-33.765625 0-66.195312 12.695312-91.320312 35.75-.492188.449219-1.203126.449219-1.695313 0-25.125-23.054688-57.554687-35.75-91.316406-35.75-75.476563 0-136.875 62.863281-136.875 140.132812 0 17.738282 6.089843 37.929688 18.082031 60.132813-16.304688 3.320313-31.488281 11.097656-43.730469 22.617187-27.257812 25.640626-35.796875 66.03125-21.253906 100.511719l6.671875 15.820313c13.074219 30.996094 29.695312 59.695312 49.40625 85.292968 1.277344 1.660157 2.566406 3.3125 3.875 4.957032l5.691406 7.167968c10.695313 13.472657 26.699219 21.199219 43.902344 21.199219 14.402344 0 28.445312-5.671875 38.820312-15.617187 10.375 9.949218 24.417969 15.617187 38.820313 15.617187 17.203125 0 33.203125-7.726562 43.902344-21.199219l5.691406-7.167968c1.304687-1.640625 2.59375-3.292969 3.875-4.957032 6.390625-8.296874 12.449219-16.929687 18.171875-25.851562 5.394531 2.628906 11.25 3.945312 17.113281 3.945312 8.453125 0 16.910157-2.734374 23.96875-8.210937 26.324219-20.417969 77.089844-61.632813 121.3125-108.257813 55.578125-58.59375 83.757813-107.714843 83.757813-146 .003906-77.269531-61.398438-140.132812-136.871094-140.132812zm-143.300781 412.304688c-1.21875 1.582031-2.445313 3.15625-3.691407 4.722656l-5.691406 7.167968c-6.878906 8.664063-17.171875 13.636719-28.238281 13.636719-9.652344 0-19.058594-3.960937-25.800781-10.871093-3.453125-3.535157-8.074219-5.480469-13.015625-5.480469h-.003907c-4.941406 0-9.5625 1.945312-13.019531 5.480469-6.742187 6.910156-16.148437 10.871093-25.800781 10.871093-11.0625 0-21.355469-4.972656-28.238281-13.636719l-5.691407-7.167968c-1.242187-1.5625-2.472656-3.136719-3.6875-4.722656-18.667968-24.238282-34.421874-51.445313-46.828124-80.863282l-6.671876-15.820312c-11.3125-26.816406-4.667968-58.226563 16.527344-78.167969 25.363282-23.859375 63.671875-25.597656 91.089844-4.128906l12.320312 9.644531v7.597656c0 38.636719 31.433594 70.070313 70.070313 70.070313h13.398437c5.523438 0 10-4.480469 10-10.003907v-13.398437c0-33.371094-23.460937-61.355469-54.753906-68.363281 26.746094-16.609375 61.246094-13.472656 84.695313 8.582031 21.195312 19.941406 27.839843 51.351563 16.527343 78.167969l-6.671874 15.820312c-12.40625 29.414063-28.160157 56.621094-46.824219 80.863282zm-66.4375-165.136719h3.394531c27.609375 0 50.070312 22.457031 50.070312 50.066406v3.398437h-3.398437c-27.605469 0-50.066406-22.460937-50.066406-50.070312zm248.34375 25.199219c-43.3125 45.664062-93.1875 86.148437-119.0625 106.21875-5.335938 4.140624-12.304688 5.0625-18.378907 2.792968 7.679688-13.492187 14.632813-27.570312 20.789063-42.164062l6.671875-15.820313c14.542969-34.480469 6.003906-74.871093-21.25-100.511719-15.65625-14.726562-36.105469-23.375-57.578125-24.351562-21.484375-.960938-42.621094 5.789062-59.550781 19.039062l-1.359375 1.066407c-2.613281-12.832031-8.917969-24.628907-18.390625-34.101563l-10.65625-10.65625c-3.90625-3.902344-10.234375-3.902344-14.144532 0-3.902343 3.90625-3.902343 10.238282 0 14.144532l10.65625 10.65625c4.777344 4.78125 8.398438 10.402343 10.753907 16.527343-14.148438-10.105469-30.925781-15.886719-48.226563-16.671875-13.316406-22.417968-20.085937-42.058594-20.085937-58.402344 0-66.242187 52.429687-120.132812 116.875-120.132812 28.738281 0 56.367187 10.828125 77.792969 30.488281 8.191406 7.515625 20.550781 7.519531 28.742187 0 21.425781-19.660156 49.054687-30.488281 77.796875-30.488281 64.441406 0 116.871094 53.890625 116.871094 120.132812 0 32.527344-27.0625 78.253907-78.265625 132.234376zm0 0"/><path d="m447.769531 140.945312h-63.972656c-4.152344 0-7.875 2.566407-9.347656 6.445313l-22.65625 59.550781-36.847657-119.421875c-1.226562-3.964843-4.773437-6.765625-8.917968-7.03125-4.144532-.269531-8.019532 2.058594-9.742188 5.835938l-24.882812 54.621093h-61.441406c-5.519532 0-10 4.480469-10 10 0 5.523438 4.480468 10.003907 10 10.003907h67.875c3.917968 0 7.476562-2.289063 9.101562-5.855469l16.648438-36.542969 37.664062 122.0625c1.257812 4.082031 4.96875 6.910157 9.234375 7.050781.109375 0 .21875.003907.324219.003907 4.140625 0 7.867187-2.558594 9.347656-6.445313l30.535156-80.273437h57.078125c5.523438 0 10-4.480469 10-10 0-5.523438-4.476562-10.003907-10-10.003907zm0 0"/><path d="m163.628906 140.945312c-2.640625 0-5.210937 1.070313-7.070312 2.929688-1.871094 1.859375-2.933594 4.441406-2.933594 7.070312 0 2.632813 1.0625 5.210938 2.933594 7.070313 1.859375 1.859375 4.4375 2.933594 7.070312 2.933594 2.628906 0 5.210938-1.070313 7.070313-2.933594 1.859375-1.859375 2.929687-4.4375 2.929687-7.070313 0-2.628906-1.070312-5.210937-2.929687-7.070312s-4.441407-2.929688-7.070313-2.929688zm0 0"/></svg>