<svg id="Capa_1" enable-background="new 0 0 512 512" height="512" viewBox="0 0 512 512" width="512" xmlns="http://www.w3.org/2000/svg"><g><path d="m154.093 355.245-55.33-95.835c-8.951-15.504-31.33-15.504-40.281 0l-55.332 95.835c-8.951 15.504 2.238 34.885 20.141 34.885h8.35v55.158c0 11.375 9.221 20.597 20.597 20.597h52.767c11.375 0 20.597-9.221 20.597-20.597v-55.158h8.35c17.903-.001 29.092-19.381 20.141-34.885z" fill="#b3e59f"/><path d="m331.471 245.957-55.33-95.835c-8.951-15.504-31.33-15.504-40.281 0l-55.33 95.835c-8.951 15.504 2.238 34.885 20.141 34.885h8.35v164.446c0 11.375 9.221 20.597 20.597 20.597h52.767c11.375 0 20.597-9.221 20.597-20.597v-164.446h8.35c17.901 0 29.09-19.381 20.139-34.885z" fill="#ffe07d"/><path d="m508.85 153.577-55.33-95.835c-8.951-15.504-31.33-15.504-40.281 0l-55.33 95.835c-8.951 15.504 2.238 34.885 20.141 34.885h8.35v256.826c0 11.375 9.221 20.597 20.597 20.597h52.767c11.375 0 20.597-9.221 20.597-20.597v-256.827h8.35c17.901 0 29.09-19.38 20.139-34.884z" fill="#df75a5"/><path d="m38.835 355.245c-8.96 15.507 2.237 34.891 20.136 34.891h8.351v55.151c0 11.383 9.218 20.6 20.6 20.6h-35.683c-11.372 0-20.59-9.218-20.59-20.6v-55.151h-8.351c-17.899 0-29.096-19.384-20.147-34.891l55.336-95.836c8.259-14.301 27.952-15.404 37.984-3.32-.846 1.01-1.619 2.124-2.31 3.32z" fill="#95d6a4"/><path d="m216.207 245.963c-8.95 15.497 2.237 34.881 20.147 34.881h8.352v164.442c0 11.383 9.218 20.6 20.59 20.6h-35.674c-11.373 0-20.601-9.218-20.601-20.6v-164.442h-8.341c-17.91 0-29.096-19.384-20.147-34.881l55.336-95.836c8.259-14.311 27.952-15.414 37.974-3.31-.835 1.01-1.608 2.114-2.299 3.31z" fill="#ffd064"/><path d="m393.589 153.581c-8.949 15.507 2.237 34.88 20.136 34.88h8.352v256.825c0 11.383 9.228 20.6 20.6 20.6h-35.674c-11.383 0-20.6-9.218-20.6-20.6v-256.824h-8.352c-17.899 0-29.086-19.373-20.136-34.88l55.326-95.836c8.259-14.311 27.952-15.414 37.984-3.32-.846 1.01-1.619 2.124-2.31 3.32z" fill="#dd5790"/></g></svg>